<?xml version="1.0" encoding="utf-8"?>
<!-- Generator: Adobe Illustrator 28.1.0, SVG Export Plug-In . SVG Version: 6.00 Build 0)  -->
<svg version="1.1" id="Laag_1" xmlns="http://www.w3.org/2000/svg" xmlns:xlink="http://www.w3.org/1999/xlink" x="0px" y="0px"
	 viewBox="0 0 219.08 74.52" style="enable-background:new 0 0 219.08 74.52;" xml:space="preserve">
<style type="text/css">
	.st0{fill:#CBBBA0;}
	.st1{fill:#CBBBA0;stroke:#000000;stroke-miterlimit:10;}
	.st2{fill:#00983A;stroke:#000000;stroke-miterlimit:10;}
</style>
<polygon class="st0" points="0.62,34.36 6.85,74.02 63.57,74.02 68.88,34.36 "/>
<polygon class="st1" points="0.62,14.23 6.94,34.36 12.86,34.36 6.74,11.86 "/>
<g>
	<polygon class="st2" points="32.76,34.36 31.93,15.15 38.91,15.15 38.91,34.36 	"/>
	<path class="st2" d="M31.99,14.49c-0.88-3.93,7.99-10.74,16.58-10.66c2.63,0.03,7.98,0.73,8.88,3.55
		c1.09,3.41-4.63,8.98-10.66,10.66C40.64,19.76,32.74,17.82,31.99,14.49z"/>
	<path class="st2" d="M38.77,16.53C40.4,12.89,31.88,3.8,23.29,1.41C22.43,1.17,15.17-0.85,13.23,2c-1.93,2.83,1.95,9.65,7.1,13.02
		C26.8,19.28,37.27,19.87,38.77,16.53z"/>
</g>
<polygon class="st1" points="69.69,14.23 63.38,34.36 57.46,34.36 63.57,11.86 "/>
<polyline class="st1" points="6.94,34.36 15.22,74.02 22.33,74.02 14.36,34.36 22.33,34.36 28.25,74.02 35.94,74.02 35.42,34.36 
	48.84,34.36 43.92,74.02 50.72,74.02 56.47,34.36 63.38,34.36 57.21,74.02 63.57,74.02 68.88,34.36 0.62,34.36 6.85,74.02 
	63.57,74.02 "/>
<g>
	<path d="M93.98,37.8c-0.82-0.5-1.46-1.22-1.92-2.15s-0.68-1.99-0.68-3.19v-4.99c0-1.2,0.24-2.26,0.71-3.18s1.13-1.64,1.98-2.15
		c0.85-0.51,1.82-0.77,2.93-0.77h2.54c1.06,0,1.99,0.22,2.8,0.67c0.81,0.45,1.44,1.08,1.88,1.9c0.45,0.82,0.67,1.75,0.67,2.81h-1.73
		c0-1.14-0.33-2.05-1-2.75c-0.66-0.7-1.54-1.04-2.63-1.04H97c-1.15,0-2.08,0.41-2.78,1.24s-1.06,1.92-1.06,3.28v4.99
		c0,1.36,0.34,2.45,1.02,3.28c0.68,0.82,1.58,1.24,2.7,1.24h2.59c1.14,0,2.06-0.39,2.76-1.18c0.7-0.78,1.06-1.82,1.06-3.1v-1.44
		h-4.66V29.7h6.38v3c0,1.15-0.23,2.17-0.68,3.06c-0.46,0.89-1.1,1.58-1.94,2.06s-1.81,0.73-2.92,0.73h-2.59
		C95.77,38.56,94.81,38.31,93.98,37.8z"/>
	<path d="M108.18,26.39h1.68v1.85c0.32-0.56,0.8-1.02,1.45-1.37c0.65-0.35,1.32-0.53,2.03-0.53h1.06v1.56h-1.06
		c-1.02,0-1.85,0.32-2.48,0.97c-0.63,0.65-0.95,1.51-0.95,2.58v6.91h-1.73C108.18,38.36,108.18,26.39,108.18,26.39z"/>
	<path d="M117.06,37.31c-0.82-0.83-1.22-1.93-1.22-3.29v-3.29c0-1.36,0.41-2.46,1.24-3.29c0.82-0.83,1.92-1.25,3.28-1.25h1.97
		c1.36,0,2.45,0.42,3.28,1.25s1.24,1.93,1.24,3.29v3.29c0,1.36-0.42,2.46-1.25,3.29s-1.94,1.25-3.31,1.25h-1.97
		C118.96,38.56,117.88,38.14,117.06,37.31z M122.27,37.02c0.86,0,1.55-0.28,2.06-0.83c0.51-0.55,0.77-1.28,0.77-2.17v-3.29
		c0-0.9-0.26-1.62-0.77-2.17c-0.51-0.55-1.18-0.83-2.02-0.83h-1.97c-0.83,0-1.5,0.28-2.02,0.83c-0.51,0.55-0.77,1.28-0.77,2.17v3.29
		c0,0.91,0.25,1.64,0.74,2.18s1.16,0.82,1.99,0.82C120.28,37.02,122.27,37.02,122.27,37.02z"/>
	<path d="M130.74,37.37c-0.82-0.79-1.22-1.84-1.22-3.16v-3.43c0-1.38,0.41-2.48,1.22-3.32c0.82-0.84,1.9-1.26,3.24-1.26h1.97
		c1.28,0,2.31,0.41,3.1,1.22c0.78,0.82,1.18,1.9,1.18,3.24v2.11h-8.98v1.44c0,0.83,0.25,1.51,0.76,2.03
		c0.5,0.52,1.16,0.78,1.98,0.78h1.82c0.8,0,1.45-0.22,1.94-0.66c0.5-0.44,0.74-1.03,0.74-1.76h1.68c0,1.18-0.4,2.14-1.2,2.87
		s-1.86,1.09-3.17,1.09h-1.82C132.64,38.56,131.56,38.16,130.74,37.37z M138.49,31.29v-0.62c0-0.88-0.23-1.59-0.7-2.12
		c-0.46-0.54-1.08-0.8-1.85-0.8h-1.97c-0.82,0-1.48,0.28-1.98,0.84s-0.76,1.3-0.76,2.21v0.5L138.49,31.29L138.49,31.29z"/>
	<path d="M143.24,26.39h1.68v1.78c0.37-0.58,0.85-1.05,1.44-1.42s1.18-0.55,1.78-0.55h1.63c1.1,0,2,0.38,2.68,1.13
		s1.02,1.74,1.02,2.95v8.09h-1.73v-8.14c0-0.74-0.18-1.34-0.55-1.8c-0.37-0.46-0.86-0.7-1.46-0.7h-1.54c-0.75,0-1.44,0.3-2.05,0.89
		c-0.62,0.59-1,1.35-1.16,2.28v7.46h-1.73L143.24,26.39L143.24,26.39z"/>
	<path d="M159.19,37.8c-0.82-0.5-1.46-1.22-1.92-2.15s-0.68-1.99-0.68-3.19v-4.99c0-1.2,0.24-2.26,0.71-3.18s1.13-1.64,1.98-2.15
		c0.85-0.51,1.82-0.77,2.93-0.77h2.54c1.06,0,1.99,0.22,2.8,0.67s1.44,1.08,1.88,1.9c0.45,0.82,0.67,1.75,0.67,2.81h-1.73
		c0-1.14-0.33-2.05-1-2.75c-0.66-0.7-1.54-1.04-2.63-1.04h-2.54c-1.15,0-2.08,0.41-2.78,1.24s-1.06,1.92-1.06,3.28v4.99
		c0,1.36,0.34,2.45,1.02,3.28c0.68,0.82,1.58,1.24,2.7,1.24h2.59c1.14,0,2.06-0.39,2.76-1.18c0.7-0.78,1.06-1.82,1.06-3.1v-1.44
		h-4.66V29.7h6.38v3c0,1.15-0.23,2.17-0.68,3.06c-0.46,0.89-1.1,1.58-1.94,2.06s-1.81,0.73-2.92,0.73h-2.59
		C160.98,38.56,160.01,38.31,159.19,37.8z"/>
	<path d="M174.13,37.31c-0.82-0.83-1.22-1.93-1.22-3.29v-3.29c0-1.36,0.41-2.46,1.24-3.29s1.92-1.25,3.28-1.25h1.97
		c1.36,0,2.45,0.42,3.28,1.25c0.82,0.83,1.24,1.93,1.24,3.29v3.29c0,1.36-0.42,2.46-1.25,3.29s-1.94,1.25-3.31,1.25h-1.97
		C176.03,38.56,174.95,38.14,174.13,37.31z M179.34,37.02c0.86,0,1.55-0.28,2.06-0.83c0.51-0.55,0.77-1.28,0.77-2.17v-3.29
		c0-0.9-0.26-1.62-0.77-2.17c-0.51-0.55-1.18-0.83-2.02-0.83h-1.97c-0.83,0-1.5,0.28-2.02,0.83c-0.51,0.55-0.77,1.28-0.77,2.17v3.29
		c0,0.91,0.25,1.64,0.74,2.18c0.5,0.54,1.16,0.82,1.99,0.82C177.35,37.02,179.34,37.02,179.34,37.02z"/>
	<path d="M187.81,37.37c-0.82-0.79-1.22-1.84-1.22-3.16v-3.43c0-1.38,0.41-2.48,1.22-3.32c0.82-0.84,1.9-1.26,3.24-1.26h1.97
		c1.28,0,2.31,0.41,3.1,1.22c0.78,0.82,1.18,1.9,1.18,3.24v2.11h-8.98v1.44c0,0.83,0.25,1.51,0.76,2.03
		c0.5,0.52,1.16,0.78,1.98,0.78h1.82c0.8,0,1.45-0.22,1.94-0.66s0.74-1.03,0.74-1.76h1.68c0,1.18-0.4,2.14-1.2,2.87
		s-1.86,1.09-3.17,1.09h-1.82C189.71,38.56,188.63,38.16,187.81,37.37z M195.56,31.29v-0.62c0-0.88-0.23-1.59-0.7-2.12
		s-1.08-0.8-1.85-0.8h-1.97c-0.82,0-1.48,0.28-1.98,0.84s-0.76,1.3-0.76,2.21v0.5L195.56,31.29L195.56,31.29z"/>
	<path d="M201.85,37.98c-0.64-0.38-1.14-0.92-1.49-1.61c-0.35-0.69-0.53-1.49-0.53-2.4v-2.88c0-0.96,0.18-1.81,0.55-2.56
		s0.89-1.32,1.56-1.73s1.44-0.61,2.3-0.61h1.78c0.54,0,1.07,0.13,1.57,0.38s0.91,0.61,1.21,1.06v-6.07h1.73v16.8h-1.68v-1.78
		c-0.37,0.59-0.85,1.07-1.44,1.43s-1.17,0.54-1.73,0.54h-1.66C203.22,38.56,202.49,38.37,201.85,37.98z M205.64,37.02
		c0.51,0,1.01-0.16,1.49-0.49c0.48-0.33,0.87-0.76,1.18-1.28s0.47-1.07,0.5-1.63V30.6c-0.11-0.85-0.43-1.54-0.95-2.06
		c-0.52-0.53-1.15-0.79-1.88-0.79h-1.68c-0.82,0-1.48,0.31-1.98,0.92s-0.76,1.43-0.76,2.44v2.88c0,0.9,0.24,1.63,0.71,2.2
		s1.08,0.85,1.81,0.85h1.56V37.02z"/>
	<path d="M88.91,62.51h-7.37l-1.73,4.66h-1.82l6.46-16.8h0.82c0.53,0,0.91,0.32,1.15,0.96l3.7,9.7h0.02v0.05l2.33,6.1h-1.82
		L88.91,62.51z M82.09,61.02h6.26l-3.12-8.35h-0.02L82.09,61.02z"/>
	<path d="M94.91,50.37h1.7l6,11.16l5.83-11.16h1.7v16.8h-1.75V53.68l-4.85,9.22c-0.18,0.32-0.33,0.54-0.46,0.66
		s-0.27,0.18-0.43,0.18h-0.53l-5.47-10.06v13.49H94.9v-16.8H94.91z"/>
	<path d="M115.74,66.74c-0.74-0.41-1.31-0.98-1.72-1.73c-0.41-0.74-0.61-1.6-0.61-2.58h1.73c0,0.99,0.29,1.8,0.88,2.41
		c0.58,0.62,1.36,0.92,2.32,0.92H121c0.94,0,1.7-0.21,2.28-0.64c0.58-0.42,0.86-0.98,0.86-1.67v-1.54c0-0.54-0.21-1.01-0.64-1.39
		s-1-0.63-1.74-0.74l-4.32-0.72c-1.22-0.21-2.16-0.64-2.83-1.3s-1.01-1.48-1.01-2.47v-1.3c0-1.17,0.44-2.1,1.31-2.8
		c0.87-0.7,2.03-1.04,3.47-1.04h2.71c1.36,0,2.46,0.41,3.29,1.24s1.25,1.91,1.25,3.25h-1.73c0-0.88-0.26-1.58-0.77-2.11
		c-0.51-0.53-1.19-0.79-2.04-0.79h-2.71c-0.91,0-1.64,0.2-2.18,0.61s-0.82,0.96-0.82,1.64v1.3c0,0.56,0.2,1.03,0.61,1.42
		c0.41,0.38,0.97,0.64,1.69,0.77l4.3,0.74c1.25,0.22,2.22,0.65,2.9,1.28c0.69,0.63,1.03,1.44,1.03,2.41v1.54
		c0,1.17-0.45,2.11-1.34,2.82c-0.9,0.71-2.07,1.07-3.53,1.07h-2.76C117.32,67.36,116.48,67.15,115.74,66.74z"/>
	<path d="M132.78,51.9h-5.33v-1.54h12.43v1.54h-5.33v15.26h-1.78L132.78,51.9L132.78,51.9z"/>
	<path d="M142.93,66.74c-0.27-0.28-0.41-0.67-0.41-1.16V50.37h11.28v1.54h-9.5v5.9h8.78v1.54h-8.78v6.29h9.5v1.54h-9.72
		C143.59,67.16,143.2,67.03,142.93,66.74z"/>
	<path d="M156.92,50.37h8.16c1.23,0,2.22,0.35,2.96,1.04s1.12,1.61,1.12,2.75v1.75c0,0.85-0.27,1.6-0.82,2.24
		c-0.54,0.65-1.27,1.11-2.18,1.38v0.02c0.48,0.26,0.92,0.66,1.31,1.22s0.69,1.19,0.9,1.9l1.32,4.49h-1.82l-1.32-4.49
		c-0.22-0.78-0.61-1.42-1.16-1.9c-0.55-0.48-1.16-0.72-1.81-0.72h-4.87v7.1h-1.78L156.92,50.37L156.92,50.37z M164.46,58.48
		c0.88,0,1.59-0.24,2.12-0.71c0.54-0.47,0.8-1.09,0.8-1.86v-1.85c0-0.64-0.22-1.15-0.65-1.54c-0.43-0.38-1-0.58-1.7-0.58h-6.34v6.53
		h5.77V58.48z"/>
	<path d="M172.93,66.76c-0.27-0.27-0.41-0.66-0.41-1.15V50.37h6.96c1.18,0,2.22,0.23,3.12,0.68s1.59,1.1,2.09,1.94
		s0.74,1.8,0.74,2.89v5.28c0,1.97-0.5,3.46-1.49,4.48c-0.99,1.02-2.45,1.52-4.37,1.52h-5.5C173.59,67.16,173.2,67.03,172.93,66.76z
		 M179.53,65.58c1.36,0,2.39-0.37,3.08-1.12c0.7-0.74,1.04-1.84,1.04-3.3v-5.28c0-1.17-0.39-2.12-1.16-2.84
		c-0.78-0.73-1.8-1.09-3.06-1.09h-5.14v13.63H179.53z"/>
	<path d="M197.84,62.51h-7.37l-1.73,4.66h-1.82l6.46-16.8h0.82c0.53,0,0.91,0.32,1.15,0.96l3.7,9.7h0.02v0.05l2.33,6.1h-1.82
		L197.84,62.51z M191.03,61.02h6.26l-3.12-8.35h-0.02L191.03,61.02z"/>
	<path d="M203.84,50.37h1.7l6,11.16l5.83-11.16h1.7v16.8h-1.75V53.68l-4.85,9.22c-0.18,0.32-0.33,0.54-0.46,0.66
		s-0.27,0.18-0.43,0.18h-0.53l-5.47-10.06v13.49h-1.75v-16.8H203.84z"/>
</g>
</svg>
